HIERARCHY
ROOT Hips
{
  OFFSET 19.4283 94.4813 -0.206219
  CHANNELS 6 Xposition Yposition Zposition Zrotation Xrotation Yrotation
  JOINT ToSpine
  {
    OFFSET -2.69724 7.43032 -0.144315
    CHANNELS 3 Zrotation Xrotation Yrotation
    JOINT Spine
    {
      OFFSET -0.0310711 10.7595 1.96963
      CHANNELS 3 Zrotation Xrotation Yrotation
      JOINT Spine1
      {
        OFFSET 13.1342 3.43533 0.764692
        CHANNELS 3 Zrotation Xrotation Yrotation
        JOINT Neck
        {
          OFFSET 29.8703 7.82586 -0.130764
          CHANNELS 3 Zrotation Xrotation Yrotation
          JOINT Head
          {
            OFFSET 9.52751 0.295786 -0.907742
            CHANNELS 3 Zrotation Xrotation Yrotation
            End Site
            {
              OFFSET 16.4037 0.713936 2.7358
            }
          }
        }
        JOINT LeftShoulder
        {
          OFFSET 27.5574 4.95586 2.47156
          CHANNELS 3 Zrotation Xrotation Yrotation
          JOINT LeftArm
          {
            OFFSET 1.20734 -0.998971 20.1238
            CHANNELS 3 Zrotation Xrotation Yrotation
            JOINT LeftForeArm
            {
              OFFSET 26.8049 -0.0536703 -0.155908
              CHANNELS 3 Zrotation Xrotation Yrotation
              JOINT LeftHand
              {
                OFFSET 26.6817 0 0.320147
                CHANNELS 3 Zrotation Xrotation Yrotation
                End Site
                {
                  OFFSET 18.6119 0 0.382219
                }
              }
            }
          }
        }
        JOINT RightShoulder
        {
          OFFSET 27.5927 4.71444 -2.65209
          CHANNELS 3 Zrotation Xrotation Yrotation
          JOINT RightArm
          {
            OFFSET 2.83739 -1.17114 -18.7564
            CHANNELS 3 Zrotation Xrotation Yrotation
            JOINT RightForeArm
            {
              OFFSET 28.839 -0.0548439 1.22491
              CHANNELS 3 Zrotation Xrotation Yrotation
              JOINT RightHand
              {
                OFFSET 26.5114 0 -0.101894
                CHANNELS 3 Zrotation Xrotation Yrotation
                End Site
                {
                  OFFSET 18.2168 0 0
                }
              }
            }
          }
        }
      }
    }
  }
  JOINT LeftUpLeg
  {
    OFFSET -4.76168 -1.9167 -10.2353
    CHANNELS 3 Zrotation Xrotation Yrotation
    JOINT LeftLeg
    {
      OFFSET 2.55951 -42.0585 -8.02213
      CHANNELS 3 Zrotation Xrotation Yrotation
      JOINT LeftFoot
      {
        OFFSET 3.16357 -42.5282 -3.95426
        CHANNELS 3 Zrotation Xrotation Yrotation
        JOINT LeftToeBase
        {
          OFFSET 0.346054 -6.02161 12.8035
          CHANNELS 3 Zrotation Xrotation Yrotation
          End Site
          {
            OFFSET 0.134235 -1.35082 5.13018
          }
        }
      }
    }
  }
  JOINT RightUpLeg
  {
    OFFSET -4.94151 -1.41743 10.6446
    CHANNELS 3 Zrotation Xrotation Yrotation
    JOINT RightLeg
    {
      OFFSET -2.56294 -42.0364 -7.94377
      CHANNELS 3 Zrotation Xrotation Yrotation
      JOINT RightFoot
      {
        OFFSET -3.0952 -42.555 -4.02241
        CHANNELS 3 Zrotation Xrotation Yrotation
        JOINT RightToeBase
        {
          OFFSET -0.0828122 -6.13587 12.8035
          CHANNELS 3 Zrotation Xrotation Yrotation
          End Site
          {
            OFFSET -0.131328 -1.35082 5.13018
          }
        }
      }
    }
  }
}
MOTION
Frames:	10
Frame Time:	0.0333333
19.3988 94.4923 -0.223971 68.5393 -35.0243 -12.9732 -70.1915 0 88.8779 66.0907 69.9031 14.0671 4.31183 18.8843 5.86885 -125.635 33.4955 154.229 173.933 77.4687 -150.784 0.037209 -16.83 -25.1629 -61.1449 37.0805 -143.634 25.1479 -4.9643 -99.6936 0.420957 0.000576259 0.35866 -1.81943 7.6323 38.1665 -135.322 -14.422 88.6949 20.6268 -1.93533 84.7036 0.58676 0.000330695 0.0646655 -56.2832 8.15895 96.1637 -1.5162 34.5123 -2.84104 -0.232361 -14.2359 -1.22412 2.75586 -8.22724 9.27894 -44.1023 -12.4856 82.0405 0.146003 26.1539 3.19152 -3.98067 0.740527 0.631386 -0.485237 -5.36078 9.4186 
19.4056 94.4943 -0.214113 68.4675 -35.0111 -12.9527 -70.1915 0 88.8779 65.8357 69.8482 14.2648 4.37901 18.7747 6.18944 -126.136 33.8271 154.939 172.236 77.4575 -149.532 0.0654229 -16.6159 -25.2423 -60.8991 37.1699 -143.951 24.9781 -5.01084 -99.866 0.420957 0.000576259 0.35866 -1.80223 7.71696 37.664 -135.27 -14.7011 88.4072 20.6516 -1.91465 84.7625 0.58676 0.000330695 0.0646655 -56.3412 8.20569 96.1781 -1.44797 34.2637 -2.51322 0.093039 -14.0973 -1.21302 2.99588 -8.48951 8.49856 -44.0597 -12.4575 81.985 0.204443 26.2613 4.43214 -3.09042 0.592644 0.516983 -0.174021 -5.02137 6.37184 
19.4417 94.4702 -0.204735 68.4742 -35.0556 -12.9855 -70.1915 0 88.8779 65.5555 69.8275 14.6112 4.52995 18.8295 6.06095 -126.222 33.8713 155.1 169.925 77.3091 -147.58 0.054569 -16.673 -25.268 -60.682 37.4942 -143.932 25.0571 -5.27723 -100.371 0.420957 0.000576259 0.35866 -1.80422 7.67191 37.829 -135.326 -14.6948 88.5777 20.4844 -1.89179 84.7778 0.58676 0.000330695 0.0646655 -56.4941 8.12202 96.1723 -1.45769 34.116 -2.87386 -0.915518 -13.8494 -1.18793 3.42501 -9.39986 9.35858 -44.0093 -12.372 82.2858 0.125853 26.6294 4.2099 -3.56194 0.556198 0.58236 0.0903724 -5.69158 5.08556 
19.4789 94.4359 -0.183903 68.4705 -35.0052 -13.0387 -70.1915 0 88.8779 64.3599 69.8763 15.9003 4.80407 19.1803 5.49319 -124.489 33.0199 152.725 176.061 77.663 -152.522 -0.00278584 -17.2469 -24.7959 -60.956 37.2795 -143.896 24.732 -4.83057 -99.6098 0.420957 0.000576259 0.35866 -1.80128 7.29999 39.0743 -135.378 -13.6123 89.3257 20.3434 -1.90757 84.7007 0.58676 0.000330695 0.0646655 -56.4226 8.13897 96.3273 -1.51701 34.324 -2.9248 -1.3564 -14.408 -1.23646 3.05553 -8.73003 9.19316 -44.0256 -12.4765 82.1972 0.197438 26.6223 4.15284 -4.24632 0.905864 0.662063 0.288889 -6.99416 5.31695 
19.4592 94.4524 -0.135481 68.4379 -34.9764 -13.072 -70.1915 0 88.8779 64.4677 69.9327 15.6452 4.63214 19.1391 5.72807 -124.683 33.1461 152.781 176.477 77.7619 -153.056 -0.0179789 -17.2832 -24.9412 -60.7147 37.4091 -144.059 25.1207 -5.09734 -99.9759 0.420957 0.000576259 0.35866 -1.78251 7.27808 38.8891 -135.499 -13.7579 89.0937 21.181 -2.02461 84.6234 0.58676 0.000330695 0.0646655 -56.2779 8.08264 96.1065 -1.5525 34.553 -3.34051 -1.13325 -14.2638 -1.22365 3.08361 -8.98722 10.2845 -44.1 -12.4788 82.1714 0.265109 26.5103 4.55261 -5.6068 1.28316 0.83686 0.514067 -7.99547 4.72934 
19.4946 94.4178 -0.140724 68.4818 -34.9934 -13.0205 -70.1915 0 88.8779 64.4903 69.897 15.6795 4.76447 19.0994 5.773 -124.963 33.2349 153.073 175.568 77.6878 -152.208 -0.00707275 -17.2296 -24.8964 -60.7559 37.4784 -143.968 25.802 -5.14262 -99.7527 0.420957 0.000576259 0.35866 -1.81504 7.44801 38.7319 -135.622 -13.8041 88.9193 21.0319 -1.94956 84.7714 0.58676 0.000330695 0.0646655 -56.4545 8.09229 96.1592 -1.53179 34.343 -3.27495 -1.46921 -14.2145 -1.21802 3.29202 -9.30701 10.0883 -44.0436 -12.4932 82.2104 0.210088 26.6632 3.86447 -4.9046 0.776544 0.755367 0.220316 -7.07145 6.06117 
19.5018 94.4002 -0.134633 68.5275 -34.9728 -12.9759 -70.1915 0 88.8779 65.4837 70.1044 14.7164 4.20669 19.2211 5.70531 -124.083 32.9138 152.08 176.541 77.8059 -152.73 -0.0271582 -17.4856 -24.6247 -60.5996 37.6054 -144.007 24.9703 -5.15972 -100.174 0.420957 0.000576259 0.35866 -1.79337 7.19524 39.3427 -135.407 -13.1488 89.2889 20.5657 -1.87945 84.83 0.58676 0.000330695 0.0646655 -56.4111 8.22868 96.358 -1.5523 34.4536 -2.90825 -1.1939 -14.2733 -1.22461 3.24567 -9.02485 9.0151 -44.0814 -12.4823 82.2075 0.212877 26.6816 3.93386 -4.93061 0.956718 0.753473 0.409009 -7.83631 5.57743 
19.5064 94.4234 -0.0945017 68.442 -34.9895 -13.0823 -70.1915 0 88.8779 65.4556 69.947 14.9537 4.30538 19.2005 5.23924 -124.12 32.8373 151.94 176.769 77.7778 -153.041 0.0355064 -17.233 -24.2296 -60.4254 37.7609 -144.215 24.9542 -5.03213 -99.9214 0.420957 0.000576259 0.35866 -1.84226 7.30185 39.6215 -135.433 -13.225 89.3818 20.9216 -1.95526 84.7292 0.58676 0.000330695 0.0646655 -56.3639 8.09556 96.1248 -1.48839 34.4175 -2.90179 -0.943316 -14.0765 -1.2074 3.31638 -9.18608 9.21596 -44.0587 -12.4032 82.3479 0.223421 26.6768 4.74854 -5.32708 1.40472 0.793775 0.721924 -8.66762 3.6288 
19.557 94.3857 -0.0876878 68.4424 -35.0309 -13.1478 -70.1915 0 88.8779 65.1092 69.9714 15.2533 4.4074 19.237 5.3276 -124.132 32.8612 152.144 175.806 77.6965 -151.986 0.00638223 -17.3259 -24.4705 -60.6855 37.6187 -144.131 24.7972 -5.08241 -100.099 0.420957 0.000576259 0.35866 -1.83249 7.30992 39.4601 -135.465 -13.2223 89.3159 20.7762 -1.95814 84.6846 0.58676 0.000330695 0.0646655 -56.4211 8.05256 96.2305 -1.50704 34.4502 -2.93238 -1.22237 -14.2804 -1.22499 3.216 -9.03721 9.34787 -43.9559 -12.4723 82.4548 0.202783 26.8558 4.09974 -5.09196 1.06358 0.771685 0.487542 -8.11465 5.20167 
19.5512 94.374 -0.0654224 68.4046 -35.0624 -13.1305 -70.1915 0 88.8779 65.2727 70.0249 15.0043 4.2892 19.2093 5.55986 -123.973 32.9469 152.08 175.746 77.8117 -151.793 -0.00344448 -17.364 -24.5352 -60.549 37.5244 -144.382 24.8055 -5.11498 -100.162 0.420957 0.000576259 0.35866 -1.82449 7.28914 39.4259 -135.439 -13.1229 89.3376 20.8371 -1.92508 84.7834 0.58676 0.000330695 0.0646655 -56.4434 8.18444 96.4686 -1.53286 34.4105 -2.96739 -1.29004 -14.25 -1.22178 3.31045 -9.18698 9.25248 -43.8597 -12.4347 82.4597 0.275028 27.0434 4.65056 -5.21816 1.07061 0.788976 0.63072 -8.18957 3.80376 
